<!-- icon666.com - MILLIONS vector ICONS FREE -->
<svg viewBox="0 0 152 152" xmlns="http://www.w3.org/2000/svg" xmlns:xlink="http://www.w3.org/1999/xlink"><linearGradient id="linear-gradient" gradientUnits="userSpaceOnUse" x1="51.16" x2="85.21" y1="47.25" y2="81.29"><stop offset="0" stop-color="#186eb3"></stop><stop offset="1" stop-color="#186eb3" stop-opacity="0"></stop></linearGradient><linearGradient id="linear-gradient-2" x1="56.2" x2="148.49" xlink:href="#linear-gradient" y1="56.2" y2="148.49"></linearGradient><g id="Layer_2" data-name="Layer 2"><g id="Color"><g id="_13.M" data-name="13.M"><rect id="Background" fill="#2196f3" height="152" rx="12" width="152"></rect><g id="Shadow"><path d="m76 90.5-16.54-51.5s18.38 15.83 25.42 23.74z" fill="url(#linear-gradient)"></path><path d="m152 75v65a12 12 0 0 1 -12 12h-65l-39-38.95h17.86v-17.3l-1.73-35.48 18 52.78h11.77l17.92-52.72-1.73 35.42v17.3h17.91v-74.05z" fill="url(#linear-gradient-2)"></path></g><path id="Icon" d="m59.46 39 16.54 51.5 16.49-51.5h23.51v74.1h-17.91v-17.35l1.73-35.42-17.92 52.72h-11.8l-18-52.78 1.73 35.48v17.3h-17.83v-74.05z" fill="#fff"></path></g></g></g></svg>